<svg width="18" height="19" viewBox="0 0 18 19" fill="none" xmlns="http://www.w3.org/2000/svg">
<g clip-path="url(#clip0_1_813)">
<path d="M17.4672 15.8941L10.535 8.96181L2.43586 0.862671H1.8029L1.67366 1.19108C1.33255 2.0579 1.1868 2.94446 1.25223 3.75483C1.32682 4.67855 1.67774 5.47828 2.26711 6.06765L8.58973 12.3903L9.42368 11.5563L15.2689 18.0924C15.8504 18.6739 16.8512 18.7084 17.4672 18.0924C18.0734 17.4863 18.0734 16.5002 17.4672 15.8941Z" fill="white"/>
<path d="M5.65953 10.9268L0.707684 15.8786C0.10163 16.4847 0.10163 17.4708 0.707684 18.0769C1.28342 18.6526 2.27941 18.7035 2.90598 18.0769L7.85786 13.125L5.65953 10.9268Z" fill="white"/>
<path d="M17.176 3.80598L14.3671 6.61492L13.6343 5.88215L16.4432 3.07317L15.7105 2.3404L12.9015 5.14934L12.1687 4.41656L14.9777 1.60762L14.245 0.874878L10.5811 4.53876C10.1329 4.98698 9.86524 5.58212 9.8274 6.21463C9.81783 6.37488 9.78151 6.5325 9.72125 6.68243L12.1013 9.06248C12.2512 9.00216 12.4089 8.96587 12.5691 8.95631C13.2016 8.91857 13.7968 8.65086 14.245 8.20264L17.9089 4.53879L17.176 3.80598Z" fill="white"/>
</g>
<defs>
<clipPath id="clip0_1_813">
<rect width="17.6789" height="17.6789" fill="white" transform="translate(0.247742 0.863037)"/>
</clipPath>
</defs>
</svg>
