<svg width="19" height="19" viewBox="0 0 19 19" fill="none" xmlns="http://www.w3.org/2000/svg">
<g clip-path="url(#clip0_1_791)">
<path d="M6.47506 3.74552V12.599C5.91142 12.0861 5.16283 11.7732 4.34267 11.7732C2.5937 11.7732 1.17079 13.1961 1.17079 14.945C1.17079 16.694 2.5937 18.1169 4.34267 18.1169C6.08947 18.1169 7.51075 16.6975 7.51441 14.9517H7.51454V8.62524L16.6235 5.88793V10.4651C16.0598 9.95236 15.3112 9.63928 14.4911 9.63928C12.7421 9.63928 11.3192 11.0622 11.3192 12.8112C11.3192 14.5601 12.7421 15.983 14.4911 15.983C16.2341 15.983 17.6531 14.5697 17.6627 12.8289H17.6629V0.383423L6.47506 3.74552Z" fill="white"/>
</g>
<defs>
<clipPath id="clip0_1_791">
<rect width="17.7335" height="17.7335" fill="white" transform="translate(0.547318 0.417725)"/>
</clipPath>
</defs>
</svg>
